<svg width="68" height="68" viewBox="0 0 68 68" fill="none" xmlns="http://www.w3.org/2000/svg">
<g filter="url(#filter0_d_5_181)">
<rect x="6" y="58" width="56" height="56" rx="28" transform="rotate(-90 6 58)" fill="#BF9E77"/>
<rect x="6.5" y="57.5" width="55" height="55" rx="27.5" transform="rotate(-90 6.5 57.5)" stroke="white" stroke-opacity="0.47"/>
<path fill-rule="evenodd" clip-rule="evenodd" d="M53.8334 29.9999C53.8334 29.6218 53.6842 29.2592 53.4185 28.9918C53.1529 28.7244 52.7925 28.5742 52.4168 28.5742H19.0055L27.9214 19.6035C28.1874 19.3358 28.3368 18.9727 28.3368 18.5941C28.3368 18.2155 28.1874 17.8524 27.9214 17.5847C27.6554 17.317 27.2946 17.1666 26.9185 17.1666C26.5423 17.1666 26.1815 17.317 25.9155 17.5847L14.5829 28.9905C14.451 29.1229 14.3463 29.2803 14.2749 29.4535C14.2035 29.6267 14.1667 29.8124 14.1667 29.9999C14.1667 30.1875 14.2035 30.3731 14.2749 30.5464C14.3463 30.7196 14.451 30.8769 14.5829 31.0093L25.9155 42.4151C26.0472 42.5477 26.2036 42.6528 26.3757 42.7246C26.5478 42.7963 26.7322 42.8333 26.9185 42.8333C27.2946 42.8333 27.6554 42.6829 27.9214 42.4151C28.1874 42.1474 28.3368 41.7843 28.3368 41.4057C28.3368 41.0271 28.1874 40.664 27.9214 40.3963L19.0055 31.4256H52.4168C52.7925 31.4256 53.1529 31.2754 53.4185 31.0081C53.6842 30.7407 53.8334 30.378 53.8334 29.9999Z" fill="white"/>
</g>
<defs>
<filter id="filter0_d_5_181" x="0" y="0" width="68" height="68" filterUnits="userSpaceOnUse" color-interpolation-filters="sRGB">
<feFlood flood-opacity="0" result="BackgroundImageFix"/>
<feColorMatrix in="SourceAlpha" type="matrix" values="0 0 0 0 0 0 0 0 0 0 0 0 0 0 0 0 0 0 127 0" result="hardAlpha"/>
<feOffset dy="4"/>
<feGaussianBlur stdDeviation="3"/>
<feComposite in2="hardAlpha" operator="out"/>
<feColorMatrix type="matrix" values="0 0 0 0 0 0 0 0 0 0 0 0 0 0 0 0 0 0 0.15 0"/>
<feBlend mode="normal" in2="BackgroundImageFix" result="effect1_dropShadow_5_181"/>
<feBlend mode="normal" in="SourceGraphic" in2="effect1_dropShadow_5_181" result="shape"/>
</filter>
</defs>
</svg>
